<?xml version="1.0" standalone="no"?>
<!DOCTYPE svg PUBLIC "-//W3C//DTD SVG 20010904//EN"
 "http://www.w3.org/TR/2001/REC-SVG-20010904/DTD/svg10.dtd">
<svg version="1.0" xmlns="http://www.w3.org/2000/svg"
 width="500.000000pt" height="500.000000pt" viewBox="0 0 500.000000 500.000000"
 preserveAspectRatio="xMidYMid meet">
<metadata>
Created by potrace 1.14, written by Peter Selinger 2001-2017
</metadata>
<g transform="translate(0.000000,500.000000) scale(0.100000,-0.100000)"
fill="#000000" stroke="none">
<path d="M186 4798 c1 -46 -1 -87 -4 -92 -3 -5 -7 -48 -9 -95 -7 -130 -8 -145
-15 -156 -9 -14 -25 -222 -33 -430 -3 -71 -7 -182 -10 -245 -3 -63 -7 -182
-10 -265 -3 -82 -9 -267 -15 -410 -5 -143 -12 -354 -15 -470 -3 -115 -7 -286
-10 -380 -13 -454 -21 -879 -31 -1695 -4 -272 -7 -506 -8 -520 l-1 -25 2469
-3 c1965 -2 2472 1 2484 10 13 12 14 121 8 959 -7 1004 -18 1439 -41 1660 -13
128 -21 257 -45 789 -6 124 -13 268 -15 320 -7 135 -13 261 -20 440 -3 85 -8
178 -12 205 -3 28 -7 73 -8 101 -1 28 -5 56 -9 62 -3 6 -4 23 0 37 4 16 2 25
-6 25 -6 0 -10 10 -9 23 1 12 -1 30 -6 40 -4 9 -5 23 -2 31 3 8 3 17 -1 21 -4
4 -8 27 -8 51 -2 52 -8 62 -28 45 -11 -9 -18 -8 -32 6 -18 18 -59 19 -81 1
-17 -13 -43 -3 -43 17 0 11 -4 13 -12 8 -35 -22 -82 -32 -96 -20 -16 13 -60
10 -79 -5 -17 -13 -43 -3 -43 17 0 11 -4 13 -12 8 -35 -22 -82 -32 -96 -20
-16 13 -60 10 -79 -5 -17 -13 -43 -3 -43 17 0 11 -4 13 -12 8 -35 -22 -82 -32
-96 -20 -16 13 -60 10 -79 -5 -17 -13 -43 -3 -43 17 0 11 -4 13 -12 8 -35 -22
-82 -32 -96 -20 -16 13 -60 10 -79 -5 -17 -13 -43 -3 -43 17 0 11 -4 13 -12 8
-35 -22 -82 -32 -96 -20 -16 13 -60 10 -79 -5 -17 -13 -43 -3 -43 17 0 11 -4
13 -12 8 -35 -22 -82 -32 -96 -20 -16 13 -60 10 -79 -5 -17 -13 -43 -3 -43 17
0 11 -4 13 -12 8 -35 -22 -82 -32 -96 -20 -16 13 -60 10 -79 -5 -17 -13 -43
-3 -43 17 0 11 -4 13 -12 8 -35 -22 -82 -32 -96 -20 -16 13 -60 10 -79 -5 -17
-13 -43 -3 -43 17 0 11 -4 13 -12 8 -35 -22 -82 -32 -96 -20 -16 13 -60 10
-79 -5 -17 -13 -43 -3 -43 17 0 11 -4 13 -12 8 -35 -22 -82 -32 -96 -20 -16
13 -60 10 -79 -5 -17 -13 -43 -3 -43 17 0 11 -4 13 -13 8 -34 -22 -81 -32 -95
-20 -16 13 -60 10 -79 -5 -17 -13 -43 -3 -43 17 0 11 -4 13 -12 8 -35 -22 -82
-32 -96 -20 -16 13 -60 10 -79 -5 -17 -13 -43 -3 -43 17 0 11 -4 13 -12 8 -35
-22 -82 -32 -96 -20 -16 13 -60 10 -79 -5 -17 -13 -43 -3 -43 17 0 11 -4 13
-12 8 -35 -22 -82 -32 -96 -20 -16 13 -60 10 -79 -5 -17 -13 -43 -3 -43 17 0
11 -4 13 -12 8 -35 -22 -82 -32 -96 -20 -16 13 -60 10 -79 -5 -17 -13 -43 -3
-43 17 0 11 -4 13 -12 8 -35 -22 -82 -32 -96 -20 -16 13 -60 10 -79 -5 -17
-13 -43 -3 -43 17 0 11 -4 13 -12 8 -35 -22 -82 -32 -96 -20 -16 13 -60 10
-79 -5 -17 -13 -43 -3 -43 17 0 11 -4 13 -12 8 -35 -22 -82 -32 -96 -20 -16
13 -60 10 -79 -5 -17 -13 -43 -3 -43 17 0 11 -4 13 -12 8 -35 -22 -82 -32 -96
-20 -16 13 -60 10 -79 -5 -16 -13 -43 -3 -43 16 0 9 -7 12 -19 9 -10 -3 -22 0
-25 6 -16 25 -21 6 -20 -71z m54 23 c0 -5 -7 -12 -16 -15 -22 -9 -24 -8 -24 9
0 8 9 15 20 15 11 0 20 -4 20 -9z m108 -3 c-6 -18 -28 -21 -28 -4 0 9 7 16 16
16 9 0 14 -5 12 -12z m122 3 c0 -5 -7 -11 -15 -15 -9 -3 -15 0 -15 9 0 8 7 15
15 15 8 0 15 -4 15 -9z m108 -3 c-6 -18 -28 -21 -28 -4 0 9 7 16 16 16 9 0 14
-5 12 -12z m122 3 c0 -5 -7 -11 -15 -15 -9 -3 -15 0 -15 9 0 8 7 15 15 15 8 0
15 -4 15 -9z m108 -3 c-6 -18 -28 -21 -28 -4 0 9 7 16 16 16 9 0 14 -5 12 -12z
m122 3 c0 -5 -7 -11 -15 -15 -9 -3 -15 0 -15 9 0 8 7 15 15 15 8 0 15 -4 15
-9z m108 -3 c-6 -18 -28 -21 -28 -4 0 9 7 16 16 16 9 0 14 -5 12 -12z m122 3
c0 -5 -7 -11 -15 -15 -9 -3 -15 0 -15 9 0 8 7 15 15 15 8 0 15 -4 15 -9z m108
-3 c-6 -18 -28 -21 -28 -4 0 9 7 16 16 16 9 0 14 -5 12 -12z m122 3 c0 -5 -7
-11 -15 -15 -9 -3 -15 0 -15 9 0 8 7 15 15 15 8 0 15 -4 15 -9z m108 -3 c-6
-18 -28 -21 -28 -4 0 9 7 16 16 16 9 0 14 -5 12 -12z m122 3 c0 -5 -7 -11 -15
-15 -9 -3 -15 0 -15 9 0 8 7 15 15 15 8 0 15 -4 15 -9z m108 -3 c-6 -18 -28
-21 -28 -4 0 9 7 16 16 16 9 0 14 -5 12 -12z m122 3 c0 -5 -7 -11 -15 -15 -9
-3 -15 0 -15 9 0 8 7 15 15 15 8 0 15 -4 15 -9z m108 -3 c-6 -18 -28 -21 -28
-4 0 9 7 16 16 16 9 0 14 -5 12 -12z m122 3 c0 -5 -7 -11 -15 -15 -9 -3 -15 0
-15 9 0 8 7 15 15 15 8 0 15 -4 15 -9z m108 -3 c-6 -18 -28 -21 -28 -4 0 9 7
16 16 16 9 0 14 -5 12 -12z m122 3 c0 -5 -7 -11 -15 -15 -9 -3 -15 0 -15 9 0
8 7 15 15 15 8 0 15 -4 15 -9z m108 -3 c-6 -18 -28 -21 -28 -4 0 9 7 16 16 16
9 0 14 -5 12 -12z m122 3 c0 -5 -7 -11 -15 -15 -9 -3 -15 0 -15 9 0 8 7 15 15
15 8 0 15 -4 15 -9z m108 -3 c-6 -18 -28 -21 -28 -4 0 9 7 16 16 16 9 0 14 -5
12 -12z m122 3 c0 -5 -7 -11 -15 -15 -9 -3 -15 0 -15 9 0 8 7 15 15 15 8 0 15
-4 15 -9z m108 -3 c-6 -18 -28 -21 -28 -4 0 9 7 16 16 16 9 0 14 -5 12 -12z
m122 3 c0 -5 -7 -11 -15 -15 -9 -3 -15 0 -15 9 0 8 7 15 15 15 8 0 15 -4 15
-9z m108 -3 c-6 -18 -28 -21 -28 -4 0 9 7 16 16 16 9 0 14 -5 12 -12z m122 3
c0 -5 -7 -11 -15 -15 -9 -3 -15 0 -15 9 0 8 7 15 15 15 8 0 15 -4 15 -9z m108
-3 c-6 -18 -28 -21 -28 -4 0 9 7 16 16 16 9 0 14 -5 12 -12z m122 3 c0 -5 -7
-11 -15 -15 -9 -3 -15 0 -15 9 0 8 7 15 15 15 8 0 15 -4 15 -9z m108 -3 c-6
-18 -28 -21 -28 -4 0 9 7 16 16 16 9 0 14 -5 12 -12z m122 3 c0 -5 -7 -11 -15
-15 -9 -3 -15 0 -15 9 0 8 7 15 15 15 8 0 15 -4 15 -9z m108 -3 c-6 -18 -28
-21 -28 -4 0 9 7 16 16 16 9 0 14 -5 12 -12z m122 3 c0 -5 -7 -11 -15 -15 -9
-3 -15 0 -15 9 0 8 7 15 15 15 8 0 15 -4 15 -9z m108 -3 c-6 -18 -28 -21 -28
-4 0 9 7 16 16 16 9 0 14 -5 12 -12z m122 3 c0 -5 -7 -11 -15 -15 -9 -3 -15 0
-15 9 0 8 7 15 15 15 8 0 15 -4 15 -9z m108 -3 c-6 -18 -28 -21 -28 -4 0 9 7
16 16 16 9 0 14 -5 12 -12z m122 3 c0 -5 -7 -11 -15 -15 -9 -3 -15 0 -15 9 0
8 7 15 15 15 8 0 15 -4 15 -9z m108 -3 c-6 -18 -28 -21 -28 -4 0 9 7 16 16 16
9 0 14 -5 12 -12z m122 3 c0 -5 -7 -11 -15 -15 -9 -3 -15 0 -15 9 0 8 7 15 15
15 8 0 15 -4 15 -9z m108 -3 c-6 -18 -28 -21 -28 -4 0 9 7 16 16 16 9 0 14 -5
12 -12z m-4428 -28 c0 -19 -11 -26 -23 -14 -8 8 3 34 14 34 5 0 9 -9 9 -20z
m110 5 c0 -8 -4 -15 -10 -15 -5 0 -10 7 -10 15 0 8 5 15 10 15 6 0 10 -7 10
-15z m120 -5 c0 -19 -11 -26 -23 -14 -8 8 3 34 14 34 5 0 9 -9 9 -20z m110 5
c0 -8 -4 -15 -10 -15 -5 0 -10 7 -10 15 0 8 5 15 10 15 6 0 10 -7 10 -15z
m120 -5 c0 -19 -11 -26 -23 -14 -8 8 3 34 14 34 5 0 9 -9 9 -20z m110 5 c0 -8
-4 -15 -10 -15 -5 0 -10 7 -10 15 0 8 5 15 10 15 6 0 10 -7 10 -15z m120 -5
c0 -19 -11 -26 -23 -14 -8 8 3 34 14 34 5 0 9 -9 9 -20z m110 5 c0 -8 -4 -15
-10 -15 -5 0 -10 7 -10 15 0 8 5 15 10 15 6 0 10 -7 10 -15z m120 -5 c0 -19
-11 -26 -23 -14 -8 8 3 34 14 34 5 0 9 -9 9 -20z m110 5 c0 -8 -4 -15 -10 -15
-5 0 -10 7 -10 15 0 8 5 15 10 15 6 0 10 -7 10 -15z m120 -5 c0 -19 -11 -26
-23 -14 -8 8 3 34 14 34 5 0 9 -9 9 -20z m110 5 c0 -8 -4 -15 -10 -15 -5 0
-10 7 -10 15 0 8 5 15 10 15 6 0 10 -7 10 -15z m120 -5 c0 -19 -11 -26 -23
-14 -8 8 3 34 14 34 5 0 9 -9 9 -20z m110 5 c0 -8 -4 -15 -10 -15 -5 0 -10 7
-10 15 0 8 5 15 10 15 6 0 10 -7 10 -15z m120 -5 c0 -19 -11 -26 -23 -14 -8 8
3 34 14 34 5 0 9 -9 9 -20z m110 5 c0 -8 -4 -15 -10 -15 -5 0 -10 7 -10 15 0
8 5 15 10 15 6 0 10 -7 10 -15z m120 -5 c0 -19 -11 -26 -23 -14 -8 8 3 34 14
34 5 0 9 -9 9 -20z m110 5 c0 -8 -4 -15 -10 -15 -5 0 -10 7 -10 15 0 8 5 15
10 15 6 0 10 -7 10 -15z m120 1 c0 -8 -4 -18 -10 -21 -5 -3 -10 3 -10 14 0 12
5 21 10 21 6 0 10 -6 10 -14z m110 -1 c0 -8 -4 -15 -10 -15 -5 0 -10 7 -10 15
0 8 5 15 10 15 6 0 10 -7 10 -15z m120 -5 c0 -19 -11 -26 -23 -14 -8 8 3 34
14 34 5 0 9 -9 9 -20z m110 5 c0 -8 -4 -15 -10 -15 -5 0 -10 7 -10 15 0 8 5
15 10 15 6 0 10 -7 10 -15z m120 -5 c0 -19 -11 -26 -23 -14 -8 8 3 34 14 34 5
0 9 -9 9 -20z m110 5 c0 -8 -4 -15 -10 -15 -5 0 -10 7 -10 15 0 8 5 15 10 15
6 0 10 -7 10 -15z m120 -5 c0 -19 -11 -26 -23 -14 -8 8 3 34 14 34 5 0 9 -9 9
-20z m110 5 c0 -8 -4 -15 -10 -15 -5 0 -10 7 -10 15 0 8 5 15 10 15 6 0 10 -7
10 -15z m120 -5 c0 -19 -11 -26 -23 -14 -8 8 3 34 14 34 5 0 9 -9 9 -20z m110
5 c0 -8 -4 -15 -10 -15 -5 0 -10 7 -10 15 0 8 5 15 10 15 6 0 10 -7 10 -15z
m120 -5 c0 -19 -11 -26 -23 -14 -8 8 3 34 14 34 5 0 9 -9 9 -20z m110 5 c0 -8
-4 -15 -10 -15 -5 0 -10 7 -10 15 0 8 5 15 10 15 6 0 10 -7 10 -15z m120 -5
c0 -19 -11 -26 -23 -14 -8 8 3 34 14 34 5 0 9 -9 9 -20z m110 5 c0 -8 -4 -15
-10 -15 -5 0 -10 7 -10 15 0 8 5 15 10 15 6 0 10 -7 10 -15z m120 -5 c0 -19
-11 -26 -23 -14 -8 8 3 34 14 34 5 0 9 -9 9 -20z m110 5 c0 -8 -4 -15 -10 -15
-5 0 -10 7 -10 15 0 8 5 15 10 15 6 0 10 -7 10 -15z m120 -5 c0 -19 -11 -26
-23 -14 -8 8 3 34 14 34 5 0 9 -9 9 -20z m110 5 c0 -8 -4 -15 -10 -15 -5 0
-10 7 -10 15 0 8 5 15 10 15 6 0 10 -7 10 -15z m120 -5 c0 -19 -11 -26 -23
-14 -8 8 3 34 14 34 5 0 9 -9 9 -20z m110 5 c0 -8 -4 -15 -10 -15 -5 0 -10 7
-10 15 0 8 5 15 10 15 6 0 10 -7 10 -15z m120 -5 c0 -19 -11 -26 -23 -14 -8 8
3 34 14 34 5 0 9 -9 9 -20z m120 0 c-11 -20 -22 -25 -33 -14 -11 11 5 34 24
34 17 0 18 -3 9 -20z m-4555 -29 c3 -5 1 -12 -5 -16 -5 -3 -10 1 -10 9 0 18 6
21 15 7z m4545 -37 c0 -8 -5 -12 -10 -9 -6 4 -8 11 -5 16 9 14 15 11 15 -7z
m-220 -1409 l0 -1095 -1875 0 -1875 0 0 1095 0 1095 1875 0 1875 0 0 -1095z
m-3478 -2152 c-11 -30 -24 -47 -36 -49 -29 -4 -46 -37 -26 -49 18 -11 -7 -41
-87 -106 -117 -94 -186 -122 -305 -127 -87 -4 -102 -2 -151 21 -112 51 -162
188 -121 330 8 25 54 23 54 -3 0 -12 7 -20 16 -20 9 0 18 9 21 20 4 14 14 20
34 20 21 0 27 -4 23 -15 -4 -9 0 -15 10 -15 9 0 16 7 16 15 0 8 4 15 10 15 6
0 6 -9 0 -26 -15 -39 -12 -84 6 -91 18 -7 32 10 41 50 3 15 8 27 12 27 3 0 16
-23 28 -50 17 -39 27 -50 45 -50 33 0 76 32 117 86 l36 46 127 -1 c79 -1 129
2 133 9 15 24 14 7 -3 -37z m334 -13 c-39 -56 -161 -177 -198 -196 -25 -13
-28 -13 -28 2 0 10 7 26 16 35 9 10 40 54 68 96 36 53 59 79 75 81 12 2 24 9
27 15 2 7 19 12 38 12 l33 0 -31 -45z m318 30 c18 0 37 5 44 12 22 22 23 -15
3 -125 -11 -60 -27 -120 -36 -133 -29 -45 -104 -57 -90 -15 3 10 8 62 10 116
4 91 23 185 32 158 3 -7 19 -13 37 -13z m2472 -15 c-38 -57 -4 -58 113 -2 39
19 71 30 71 24 0 -5 16 -7 35 -5 29 3 35 1 35 -14 0 -21 16 -24 27 -4 4 7 23
15 41 18 l32 5 -22 -26 c-68 -78 -89 -95 -157 -127 -41 -19 -86 -34 -100 -34
-14 0 -44 -7 -66 -15 -93 -33 -176 -11 -210 55 -19 37 -19 61 1 104 22 45 39
52 135 48 l80 -4 -15 -23z m-2056 20 c0 -17 -143 -254 -185 -305 -11 -14 -29
-43 -40 -63 -11 -20 -25 -37 -33 -37 -7 0 -24 -8 -39 -17 -24 -16 -26 -16 -40
3 -13 18 -15 18 -24 2 -11 -20 -44 -24 -54 -8 -7 12 32 80 46 80 6 0 8 4 5 9
-8 13 148 256 164 256 9 0 14 8 12 19 -2 9 4 28 13 42 14 22 22 24 95 24 44 0
80 -2 80 -5z m390 -15 c0 -11 5 -20 11 -20 6 0 13 9 16 20 5 17 14 20 64 20
33 0 59 -4 59 -10 0 -5 -4 -10 -9 -10 -6 0 -16 -10 -23 -23 -39 -69 -63 -98
-101 -121 -49 -28 -133 -38 -147 -17 -11 18 -23 157 -15 171 3 5 37 10 76 10
62 0 69 -2 69 -20z m595 -2 c-3 -13 -9 -33 -12 -45 -3 -13 -12 -23 -20 -23 -8
0 -11 -5 -8 -10 7 -12 -45 -102 -83 -142 -26 -28 -54 -34 -99 -22 -13 4 -23
14 -23 24 0 10 -5 20 -10 22 -6 2 7 48 31 111 l43 107 94 0 c93 0 94 0 87 -22z
m423 5 c-3 -20 15 -21 170 -7 71 6 82 4 82 -9 0 -24 9 -25 79 -16 36 5 68 6
72 2 10 -11 -18 -43 -66 -75 -35 -23 -54 -27 -150 -33 -60 -4 -123 -13 -139
-21 -16 -7 -39 -11 -52 -8 -15 4 -24 2 -24 -5 0 -6 -11 -11 -25 -11 -14 0 -28
-7 -32 -16 -11 -29 -83 -54 -150 -52 -50 2 -63 6 -63 18 0 9 5 21 11 27 13 13
3 34 -14 32 -7 -1 -21 1 -32 5 -11 5 -26 10 -32 12 -7 2 -13 17 -13 33 0 33
14 44 70 56 91 18 105 24 118 55 l14 30 89 0 c80 0 90 -2 87 -17z"/>
<path d="M895 4068 c-2 -7 -8 -74 -13 -148 -10 -145 -7 -1154 3 -1170 10 -16
702 -13 707 3 2 6 4 84 3 172 l-1 160 -134 0 -135 0 -5 -30 -5 -30 -86 -3 -86
-3 -5 123 c-3 68 -2 166 2 218 4 52 7 235 6 405 l-1 310 -123 3 c-93 2 -123 0
-127 -10z m191 -1125 c-10 -10 -19 5 -10 18 6 11 8 11 12 0 2 -7 1 -15 -2 -18z"/>
<path d="M1949 4072 l-156 -2 -10 -158 c-6 -86 -10 -384 -9 -662 l1 -505 135
0 135 0 -5 215 c-3 118 -5 249 -5 290 l0 75 90 -3 c49 -2 96 -8 103 -15 12 -9
14 -60 11 -287 l-4 -275 135 0 135 0 -1 95 c-2 184 -2 557 -1 760 1 259 -5
460 -15 466 -9 6 -345 10 -539 6z m41 -52 c0 -5 -4 -10 -10 -10 -5 0 -10 5
-10 10 0 6 5 10 10 10 6 0 10 -4 10 -10z m190 -20 c0 -5 -2 -10 -4 -10 -3 0
-8 5 -11 10 -3 6 -1 10 4 10 6 0 11 -4 11 -10z m11 -53 c-16 -16 -26 0 -10 19
9 11 15 12 17 4 2 -6 -1 -17 -7 -23z m204 -7 c-3 -5 -11 -10 -16 -10 -6 0 -7
5 -4 10 3 6 11 10 16 10 6 0 7 -4 4 -10z m-91 -24 c-6 -15 -24 -23 -24 -11 0
8 24 34 28 30 1 -1 0 -10 -4 -19z m62 -32 c-3 -9 -6 -18 -6 -20 0 -2 -9 -4
-20 -4 -25 0 -26 16 -2 29 25 15 35 13 28 -5z m-499 -30 c-3 -3 -12 -4 -19 -1
-8 3 -5 6 6 6 11 1 17 -2 13 -5z m473 -34 c0 -11 -7 -20 -15 -20 -15 0 -21 21
-8 33 12 13 23 7 23 -13z m-113 -23 c4 -6 8 -55 9 -108 l1 -97 -94 -7 c-52 -4
-96 -5 -99 -2 -3 3 -3 55 1 116 l7 110 84 0 c54 0 86 -4 91 -12z"/>
<path d="M2694 4033 c-4 -27 -8 -327 -8 -668 l-1 -620 130 0 130 0 0 277 c0
178 4 278 10 279 6 1 24 -27 42 -62 17 -35 72 -145 121 -244 49 -99 95 -197
102 -217 l12 -38 144 0 c110 0 146 3 150 13 2 7 -27 69 -67 137 -39 68 -89
169 -111 224 -22 56 -55 131 -74 168 -18 37 -52 107 -73 157 -34 79 -37 92
-24 103 38 31 333 500 333 529 0 4 -64 7 -142 7 l-143 -2 -27 -28 c-14 -15
-48 -65 -74 -111 -27 -45 -63 -101 -80 -124 -18 -23 -42 -63 -55 -88 -12 -25
-26 -45 -31 -45 -4 0 -8 39 -9 88 -1 155 -14 293 -30 303 -8 5 -60 9 -116 9
l-102 0 -7 -47z m556 -218 c0 -8 -4 -15 -10 -15 -5 0 -10 7 -10 15 0 8 5 15
10 15 6 0 10 -7 10 -15z m-415 -235 c3 -5 1 -10 -4 -10 -6 0 -11 5 -11 10 0 6
2 10 4 10 3 0 8 -4 11 -10z m-35 -200 c0 -5 -5 -10 -11 -10 -5 0 -7 5 -4 10 3
6 8 10 11 10 2 0 4 -4 4 -10z"/>
<path d="M3884 4072 l-162 -2 -8 -28 c-4 -15 -8 -302 -9 -638 -1 -335 -4 -615
-8 -620 -20 -33 7 -35 364 -37 l354 -2 3 168 2 167 -135 0 -135 0 0 -30 c0
-16 -4 -30 -10 -31 -49 -3 -162 -1 -167 4 -3 4 -8 61 -10 127 -4 121 -2 127
32 120 6 -1 43 1 83 5 l72 7 0 129 c0 148 9 137 -110 141 l-65 3 -3 128 -3
128 93 -3 93 -3 5 -74 5 -75 117 -3 117 -3 6 43 c3 23 7 118 8 211 l2 170
-185 0 c-102 1 -258 0 -346 -2z m226 -66 c0 -3 -4 -8 -10 -11 -5 -3 -10 -1
-10 4 0 6 5 11 10 11 6 0 10 -2 10 -4z m20 -45 c0 -12 -20 -25 -27 -18 -7 7 6
27 18 27 5 0 9 -4 9 -9z m104 -46 c-4 -8 -14 -15 -23 -15 -14 1 -13 3 3 15 25
19 27 19 20 0z m-64 -25 c0 -5 -4 -10 -10 -10 -5 0 -10 5 -10 10 0 6 5 10 10
10 6 0 10 -4 10 -10z m120 -15 c-7 -8 -16 -15 -21 -15 -5 0 -9 7 -9 15 0 9 9
15 21 15 18 0 19 -2 9 -15z m-20 -60 c0 -8 -4 -15 -10 -15 -5 0 -10 7 -10 15
0 8 5 15 10 15 6 0 10 -7 10 -15z m-450 -435 c0 -5 -5 -10 -11 -10 -5 0 -7 5
-4 10 3 6 8 10 11 10 2 0 4 -4 4 -10z m100 -424 c0 -3 -4 -8 -10 -11 -5 -3
-10 -1 -10 4 0 6 5 11 10 11 6 0 10 -2 10 -4z"/>
<path d="M2129 2571 c-28 -28 -29 -33 -29 -125 0 -136 20 -175 88 -176 24 0
42 8 63 29 16 16 29 34 29 40 0 15 -45 14 -69 -1 -10 -6 -26 -8 -35 -5 -14 6
-16 21 -14 104 3 93 4 98 26 101 13 2 25 -3 28 -12 8 -22 64 -22 64 0 0 28
-56 74 -90 74 -22 0 -41 -9 -61 -29z"/>
<path d="M2360 2513 c1 -49 4 -123 7 -165 6 -74 7 -78 29 -78 22 0 24 4 24 45
0 25 5 45 10 45 6 0 20 -20 32 -45 17 -35 27 -45 46 -45 26 0 26 4 1 66 -11
28 -10 34 9 59 17 22 22 41 22 88 0 52 -4 65 -27 89 -24 25 -34 28 -90 28
l-64 0 1 -87z m115 -27 c0 -35 -5 -52 -17 -60 -24 -15 -31 -3 -35 60 -3 55 -3
55 25 52 25 -3 27 -6 27 -52z"/>
<path d="M2630 2450 c0 -104 3 -150 11 -150 8 0 7 -5 -1 -15 -12 -14 -4 -16
71 -13 78 3 84 4 87 26 3 20 0 22 -52 22 -61 0 -70 7 -61 50 5 23 12 30 30 30
15 0 25 7 29 23 9 34 8 35 -21 39 -24 3 -28 8 -31 40 l-3 37 58 3 c59 3 60 4
54 48 0 6 -37 10 -86 10 l-85 0 0 -150z"/>
<path d="M2891 2493 c0 -126 6 -173 24 -173 7 0 15 -10 18 -21 4 -15 11 -20
22 -15 9 3 34 9 56 12 55 9 49 24 -10 24 -39 0 -51 -4 -54 -17 -3 -10 -4 0 -2
22 2 22 4 48 4 57 1 10 13 19 31 23 23 5 30 12 30 30 0 18 -6 24 -27 27 -24 3
-28 8 -31 41 l-3 37 60 0 61 0 0 30 0 30 -90 0 -89 0 0 -107z"/>
<path d="M3158 2595 c-6 -6 0 -182 8 -232 6 -41 29 -34 44 13 14 42 25 43 38
5 8 -22 15 -28 30 -24 19 5 19 7 5 68 l-14 63 31 56 32 56 -31 0 c-26 0 -34
-6 -51 -39 -29 -58 -40 -59 -40 -7 0 42 -2 46 -23 46 -13 0 -26 -2 -29 -5z"/>
<path d="M1850 2500 c-22 -22 -27 -78 -7 -85 6 -3 37 1 67 8 62 14 71 30 40
70 -26 33 -71 36 -100 7z"/>
<path d="M3401 2494 c-23 -30 -28 -72 -8 -79 6 -3 37 1 67 8 44 10 56 17 58
34 8 57 -80 84 -117 37z"/>
<path d="M405 1141 c-6 -11 9 -23 19 -14 9 9 7 23 -3 23 -6 0 -12 -4 -16 -9z"/>
<path d="M817 1144 c-8 -8 1 -24 14 -24 5 0 9 7 9 15 0 15 -12 20 -23 9z"/>
<path d="M820 1095 c0 -8 5 -15 10 -15 6 0 10 7 10 15 0 8 -4 15 -10 15 -5 0
-10 -7 -10 -15z"/>
<path d="M660 990 c0 -5 7 -10 15 -10 8 0 15 5 15 10 0 6 -7 10 -15 10 -8 0
-15 -4 -15 -10z"/>
<path d="M395 951 c-6 -11 9 -23 19 -14 9 9 7 23 -3 23 -6 0 -12 -4 -16 -9z"/>
<path d="M1700 1150 c0 -13 5 -20 13 -17 6 2 12 10 12 17 0 7 -6 15 -12 18 -8
2 -13 -5 -13 -18z"/>
<path d="M3407 1150 c-23 -27 -22 -50 3 -50 12 0 20 -7 20 -16 0 -9 7 -14 18
-12 12 2 17 13 17 38 0 59 -26 77 -58 40z"/>
</g>
</svg>
